{"accessors":[{"bufferView":0,"componentType":5123,"count":30624,"max":[6107],"min":[0],"type":"SCALAR"},{"bufferView":1,"componentType":5126,"count":6108,"max":[-1.497725486755371,-0.029467523097991943,0.3526599705219269],"min":[-1.766814112663269,-0.20898398756980896,-0.3526599705219269],"type":"VEC3"},{"bufferView":2,"componentType":5126,"count":6108,"max":[0.9998779296875,0.9982299208641052,0.999420166015625],"min":[-0.9989623427391052,-0.999847412109375,-0.999420166015625],"type":"VEC3"},{"bufferView":3,"componentType":5126,"count":6108,"max":[1.0,0.9961234927177429,0.9969873428344727,1.0],"min":[-0.9998845458030701,-0.9994309544563293,-0.9969872236251831,-1.0],"type":"VEC4"},{"bufferView":4,"componentType":5126,"count":6108,"max":[1.0,1.0],"min":[0.0,0.0],"type":"VEC2"},{"bufferView":5,"componentType":5123,"count":3744,"max":[749],"min":[0],"type":"SCALAR"},{"bufferView":6,"componentType":5126,"count":750,"max":[-1.4962985515594482,-0.01744857430458069,0.3782934844493866],"min":[-1.6935566663742065,-0.3585394620895386,-0.3782934844493866],"type":"VEC3"},{"bufferView":7,"componentType":5126,"count":750,"max":[0.9977721571922302,0.9323404431343079,0.999908447265625],"min":[-0.965025782585144,-0.9748222231864929,-0.999908447265625],"type":"VEC3"},{"bufferView":8,"componentType":5126,"count":750,"max":[0.9901340007781982,0.7519760131835938,0.9565035104751587,1.0],"min":[-0.8880447149276733,-0.6076945662498474,-0.9880178570747375,-1.0],"type":"VEC4"},{"bufferView":9,"componentType":5126,"count":750,"max":[1.0,1.0],"min":[0.0,0.0],"type":"VEC2"},{"bufferView":10,"componentType":5123,"count":29592,"max":[4989],"min":[0],"type":"SCALAR"},{"bufferView":11,"componentType":5126,"count":4990,"max":[1.5463372468948364,0.24078908562660217,2.002685785293579],"min":[-1.3914127349853516,-0.16200269758701324,-2.002685785293579],"type":"VEC3"},{"bufferView":12,"componentType":5126,"count":4990,"max":[0.37589648365974426,0.99993896484375,0.999664306640625],"min":[-0.999908447265625,-0.99993896484375,-0.999664306640625],"type":"VEC3"},{"bufferView":13,"componentType":5126,"count":4990,"max":[1.0,0.0,-0.0,-1.0],"min":[1.0,0.0,-0.0,-1.0],"type":"VEC4"},{"bufferView":14,"componentType":5126,"count":4990,"max":[0.0,1.0],"min":[0.0,1.0],"type":"VEC2"},{"bufferView":15,"componentType":5123,"count":30600,"max":[5133],"min":[0],"type":"SCALAR"},{"bufferView":16,"componentType":5126,"count":5134,"max":[-1.3515477180480957,0.3195585310459137,2.0080113410949707],"min":[-1.9237412214279175,-0.35756564140319824,-2.0080113410949707],"type":"VEC3"},{"bufferView":17,"componentType":5126,"count":5134,"max":[0.999603271484375,0.999755859375,0.999847412109375],"min":[-0.999786376953125,-0.999908447265625,-0.999847412109375],"type":"VEC3"},{"bufferView":18,"componentType":5126,"count":5134,"max":[1.0,0.0,-0.0,-1.0],"min":[1.0,0.0,-0.0,-1.0],"type":"VEC4"},{"bufferView":19,"componentType":5126,"count":5134,"max":[0.0,1.0],"min":[0.0,1.0],"type":"VEC2"},{"bufferView":20,"componentType":5123,"count":14976,"max":[3253],"min":[0],"type":"SCALAR"},{"bufferView":21,"componentType":5126,"count":3254,"max":[-1.5601959228515625,0.2992180287837982,1.8621681928634644],"min":[-2.9605135917663574,-0.6092411279678345,-1.8621681928634644],"type":"VEC3"},{"bufferView":22,"componentType":5126,"count":3254,"max":[0.24768821895122528,0.9985045790672302,0.9958494901657104],"min":[-0.269783616065979,-0.9983825087547302,-0.9958494901657104],"type":"VEC3"},{"bufferView":23,"componentType":5126,"count":3254,"max":[0.9985723495483398,0.10930992662906647,0.9999979734420776,1.0],"min":[-0.9999353289604187,-0.10512170940637589,-0.9999979734420776,-1.0],"type":"VEC4"},{"bufferView":24,"componentType":5126,"count":3254,"max":[1.0,1.0],"min":[0.0,0.0],"type":"VEC2"},{"bufferView":25,"componentType":5123,"count":26112,"max":[4783],"min":[0],"type":"SCALAR"},{"bufferView":26,"componentType":5126,"count":4784,"max":[-1.5607447624206543,0.2972199022769928,1.8588157892227173],"min":[-2.9989497661590576,-0.606911301612854,-1.8588157892227173],"type":"VEC3"},{"bufferView":27,"componentType":5126,"count":4784,"max":[0.999114990234375,0.3971068561077118,0.36207160353660583],"min":[-0.9989623427391052,-0.3961302638053894,-0.36207160353660583],"type":"VEC3"},{"bufferView":28,"componentType":5126,"count":4784,"max":[0.36451005935668945,0.0014302186900749803,1.0,1.0],"min":[-0.10416854918003082,-0.0026432620361447334,-1.0,-1.0],"type":"VEC4"},{"bufferView":29,"componentType":5126,"count":4784,"max":[1.0,1.0],"min":[0.0,0.0],"type":"VEC2"}],"asset":{"generator":"Khronos Blender glTF 2.0 exporter","version":"2.0"},"bufferViews":[{"buffer":0,"byteLength":61248,"byteOffset":0,"target":34963},{"buffer":0,"byteLength":73296,"byteOffset":61248,"target":34962},{"buffer":0,"byteLength":73296,"byteOffset":134544,"target":34962},{"buffer":0,"byteLength":97728,"byteOffset":207840,"target":34962},{"buffer":0,"byteLength":48864,"byteOffset":305568,"target":34962},{"buffer":0,"byteLength":7488,"byteOffset":354432,"target":34963},{"buffer":0,"byteLength":9000,"byteOffset":361920,"target":34962},{"buffer":0,"byteLength":9000,"byteOffset":370920,"target":34962},{"buffer":0,"byteLength":12000,"byteOffset":379920,"target":34962},{"buffer":0,"byteLength":6000,"byteOffset":391920,"target":34962},{"buffer":0,"byteLength":59184,"byteOffset":397920,"target":34963},{"buffer":0,"byteLength":59880,"byteOffset":457104,"target":34962},{"buffer":0,"byteLength":59880,"byteOffset":516984,"target":34962},{"buffer":0,"byteLength":79840,"byteOffset":576864,"target":34962},{"buffer":0,"byteLength":39920,"byteOffset":656704,"target":34962},{"buffer":0,"byteLength":61200,"byteOffset":696624,"target":34963},{"buffer":0,"byteLength":61608,"byteOffset":757824,"target":34962},{"buffer":0,"byteLength":61608,"byteOffset":819432,"target":34962},{"buffer":0,"byteLength":82144,"byteOffset":881040,"target":34962},{"buffer":0,"byteLength":41072,"byteOffset":963184,"target":34962},{"buffer":0,"byteLength":29952,"byteOffset":1004256,"target":34963},{"buffer":0,"byteLength":39048,"byteOffset":1034208,"target":34962},{"buffer":0,"byteLength":39048,"byteOffset":1073256,"target":34962},{"buffer":0,"byteLength":52064,"byteOffset":1112304,"target":34962},{"buffer":0,"byteLength":26032,"byteOffset":1164368,"target":34962},{"buffer":0,"byteLength":52224,"byteOffset":1190400,"target":34963},{"buffer":0,"byteLength":57408,"byteOffset":1242624,"target":34962},{"buffer":0,"byteLength":57408,"byteOffset":1300032,"target":34962},{"buffer":0,"byteLength":76544,"byteOffset":1357440,"target":34962},{"buffer":0,"byteLength":38272,"byteOffset":1433984,"target":34962}],"buffers":[{"byteLength":1472256,"uri":"data:application/octet-stream;base64,"}],"images":[{"mimeType":"image/png","name":"01_alpha_blend","uri":"data:image/png;base64,"},{"mimeType":"image/png","name":"2Alpha_gradent","uri":"data:image/png;base64,"},{"mimeType":"image/png","name":"02_alpha_blend","uri":"data:image/png;base64,"}],"materials":[{"emissiveFactor":[0.2632722854614258,0.2632722854614258,0.2632722854614258],"emissiveTexture":{"index":0},"name":"EMMISION","pbrMetallicRoughness":{"roughnessFactor":0.0}},{"alphaMode":"BLEND","doubleSided":true,"name":"GLAsses_glass","pbrMetallicRoughness":{"baseColorFactor":[0.9762380123138428,1.0,0.9248946905136108,1.0],"baseColorTexture":{"index":0},"roughnessFactor":0.0}},{"alphaMode":"BLEND","emissiveFactor":[0.07322489470243454,0.07322489470243454,0.07322489470243454],"name":"GLAsses_glass.001","pbrMetallicRoughness":{"baseColorTexture":{"index":3},"roughnessFactor":0.0}},{"name":"Glasses_Gunmetal","pbrMetallicRoughness":{"baseColorFactor":[0.09187600761651993,0.08418188989162445,0.09587231278419495,1.0],"metallicFactor":0.7542372941970825,"roughnessFactor":0.3262712061405182}},{"name":"Material.001","pbrMetallicRoughness":{"baseColorFactor":[0.19785144925117493,0.18055874109268188,0.20684988796710968,1.0],"roughnessFactor":0.08050850033760071}}],"meshes":[{"name":"Plane.008","primitives":[{"attributes":{"NORMAL":2,"POSITION":1,"TANGENT":3,"TEXCOORD_0":4},"indices":0,"material":4},{"attributes":{"NORMAL":7,"POSITION":6,"TANGENT":8,"TEXCOORD_0":9},"indices":5,"material":2}]},{"name":"Plane.007","primitives":[{"attributes":{"NORMAL":12,"POSITION":11,"TANGENT":13,"TEXCOORD_0":14},"indices":10,"material":3},{"attributes":{"NORMAL":17,"POSITION":16,"TANGENT":18,"TEXCOORD_0":19},"indices":15,"material":4}]},{"name":"Plane.012","primitives":[{"attributes":{"NORMAL":22,"POSITION":21,"TANGENT":23,"TEXCOORD_0":24},"indices":20,"material":0},{"attributes":{"NORMAL":27,"POSITION":26,"TANGENT":28,"TEXCOORD_0":29},"indices":25,"material":1}]}],"nodes":[{"name":"Camera","rotation":[0.7071068286895752,0.0,-0.0,0.7071067094802856],"translation":[0.0,4.018470463051926e-06,10.697519302368164]},{"children":[3],"mesh":1,"name":"GLASSES_FRONT"},{"mesh":0,"name":"GLASSES_FRONT.001"},{"mesh":2,"name":"GLASSES_GLASSES.007"}],"samplers":[{}],"scene":0,"scenes":[{"name":"Scene","nodes":[2,0,1]}],"textures":[{"sampler":0,"source":0},{"sampler":0,"source":0},{"sampler":0,"source":1},{"sampler":0,"source":2},{"sampler":0,"source":2}]}
